<svg height="506pt" viewBox="0 0 506.75606 506" width="506pt" xmlns="http://www.w3.org/2000/svg"><path fill="white" d="m302.015625 175.988281c2.382813.003907 4.667969-.941406 6.351563-2.628906 87.023437-87.023437 130.644531-100.5 138.503906-102.320313 3.160156-.691406 5.707031-3.027343 6.664062-6.121093.957032-3.089844.175782-6.457031-2.042968-8.8125s-5.53125-3.335938-8.675782-2.566407c-12.214844 2.824219-58.9375 18.898438-147.152344 107.117188-2.570312 2.570312-3.339843 6.433594-1.949218 9.789062 1.390625 3.355469 4.667968 5.542969 8.300781 5.542969zm0 0"/><path fill="white" d="m460.808594 313.09375-11.820313 11.820312-6.804687-18.605468 24.984375-24.976563c10.4375-10.5625 10.433593-27.554687-.007813-38.109375-10.539062-10.5-27.582031-10.496094-38.117187.003906l-7.273438 7.273438-17.4375-47.671875c75.375-83.097656 103.613281-147.472656 75.527344-175.554687-28.066406-28.097657-92.457031.140624-175.554687 75.527343l-47.675782-17.441406 7.277344-7.273437c10.503906-10.53125 10.503906-27.574219 0-38.105469-4.972656-5.09375-11.816406-7.929688-18.933594-7.84375-7.191406-.085938-14.109375 2.742187-19.175781 7.84375l-24.972656 24.972656-18.601563-6.808594 11.8125-11.816406c10.511719-10.527344 10.511719-27.578125 0-38.109375-5.003906-5.039062-11.820312-7.863281-18.925781-7.835938-7.199219-.136718-14.132813 2.699219-19.179687 7.835938l-29.511719 29.511719-63.785157-23.332031c-6.546874-2.261719-13.808593-.621094-18.746093 4.234374l-38.609375 38.613282c-3.917969 3.90625-5.816406 9.398437-5.144532 14.886718.671876 5.492188 3.839844 10.363282 8.582032 13.207032l198.152344 118.894531c-25.253907 29.277344-48.886719 59.917969-70.78125 91.785156l-82.535157-10.308593c-5.542969-.765626-11.125 1.121093-15.0625 5.09375l-13.210937 13.207031c-4.15625 4.132812-6.03125 10.039062-5.015625 15.816406 1.015625 5.773437 4.789062 10.6875 10.109375 13.15625l67.964844 31.71875c-7.195313 19.65625-8.074219 35.15625.429687 43.664063 4.730469 4.328124 11.019531 6.546874 17.421875 6.144531 9.007812-.398438 17.886719-2.324219 26.25-5.703125l31.691406 67.917968c2.453125 5.316407 7.351563 9.097657 13.113282 10.132813 1.039062.183594 2.089843.273437 3.144531.273437 4.777343 0 9.359375-1.898437 12.734375-5.28125l13.210937-13.207031c3.957031-3.90625 5.851563-9.449219 5.105469-14.960937l-10.328125-82.636719c31.871094-21.898437 62.511719-45.527344 91.792969-70.78125l118.867187 198.113281c2.808594 4.757813 7.667969 7.941406 13.152344 8.609375.757813.09375 1.519531.140625 2.28125.140625 4.757813.003906 9.320313-1.894531 12.675781-5.269531l38.605469-38.613281c4.902344-4.980469 6.53125-12.324219 4.183594-18.910156l-23.269531-63.617188 29.515624-29.519531c10.457032-10.550781 10.457032-27.558594 0-38.109375-10.675781-10.144532-27.429687-10.140625-38.105468.003906zm-19.0625-57.160156c3.511718-3.507813 9.199218-3.507813 12.710937-.003906 1.714844 1.707031 2.644531 4.046874 2.570313 6.464843.027344 2.34375-.902344 4.59375-2.570313 6.238281l-19.074219 19.074219-6.808593-18.605469zm-203.25-203.257813c1.691406-1.742187 4.046875-2.679687 6.476562-2.574219 2.324219.050782 4.550782.96875 6.230469 2.578126 3.5 3.515624 3.5 9.195312 0 12.707031l-13.171875 13.175781-18.605469-6.8125zm-69.863282-31.757812c1.71875-1.703125 4.058594-2.632813 6.476563-2.574219 2.328125.039062 4.554687.957031 6.226563 2.574219 3.5 3.511719 3.5 9.195312 0 12.707031l-17.714844 17.714844-18.601563-6.804688zm-150.65625 49.035156 38.632813-38.628906 68.542969 25.070312c.136718.058594.269531.097657.410156.148438l36.882812 13.492187.207032.074219 126.855468 46.402344c-6.324218 6-12.738281 12.246093-19.242187 18.734375-7.996094 7.996094-16.558594 16.894531-25.421875 26.410156l-141.71875-78.71875c-2.8125-1.648438-6.296875-1.648438-9.105469.007812-2.808593 1.65625-4.5 4.699219-4.421875 7.960938.082032 3.257812 1.921875 6.21875 4.808594 7.730469l137.933594 76.621093c-4.46875 4.941407-8.976563 10.003907-13.527344 15.195313zm20.003907 246.761719 13.238281-13.195313 73.984375 9.246094c-7.257813 11.421875-13.875 23.238281-19.820313 35.398437zm73.484375 78.953125c-3.851563-3.851563-1.660156-14.941407 5.636718-31.175781.148438-.25.347657-.449219.476563-.71875.101563-.226563.082031-.464844.164063-.695313 18.519531-40.316406 67.527343-111.164063 135.101562-183.871094l.066406-.070312c9.65625-10.382813 19.671875-20.777344 30.050782-31.179688 80.878906-80.878906 139.089843-113.4375 168.25-113.4375 5.835937-.398437 11.582031 1.566407 15.949218 5.457031 18.351563 18.351563-7.613281 83.820313-107.980468 184.191407-83.074219 83.070312-169.125 144.09375-215.195313 165.238281-.207031.078125-.417969.054688-.621094.148438-.179687.085937-.285156.246093-.460937.339843-16.378906 7.398438-27.566406 9.636719-31.4375 5.769531zm92.160156 60.273437-13.195312 13.222656-31.453126-67.40625c12.15625-5.9375 23.976563-12.546874 35.398438-19.796874zm233.566406 33.226563-120.507812-200.847657c5.179687-4.546874 10.242187-9.058593 15.1875-13.535156l76.621094 137.9375c1.515624 2.886719 4.472656 4.726563 7.734374 4.804688 3.257813.082031 6.304688-1.609375 7.957032-4.417969 1.65625-2.808594 1.660156-6.292969.011718-9.105469l-78.714843-141.707031c9.515625-8.867187 18.414062-17.433594 26.402343-25.425781 6.511719-6.511719 12.753907-12.925782 18.734376-19.242188l46.417968 126.9375.027344.066406 13.554688 37.070313.074218.199219 25.101563 68.636718zm49.019532-150.667969-23.613282 23.617188-6.804687-18.605469 17.71875-17.714844c3.566406-3.367187 9.136719-3.367187 12.703125 0 1.714844 1.707031 2.648437 4.046875 2.578125 6.46875.023437 2.339844-.90625 4.59375-2.582031 6.234375zm0 0"/></svg>