<?xml version="1.0" encoding="iso-8859-1"?>
<!-- Generator: Adobe Illustrator 19.0.0, SVG Export Plug-In . SVG Version: 6.00 Build 0)  -->
<svg version="1.1" id="Capa_1" xmlns="http://www.w3.org/2000/svg" xmlns:xlink="http://www.w3.org/1999/xlink" x="0px" y="0px"
	 viewBox="0 0 512 512" style="enable-background:new 0 0 512 512;" xml:space="preserve">
<g>
	<g>
		<path fill="white" d="M177.74,29.93c-1.86-1.86-4.44-2.93-7.07-2.93c-2.64,0-5.21,1.07-7.07,2.93c-1.86,1.86-2.93,4.44-2.93,7.07
			s1.07,5.21,2.93,7.07c1.86,1.86,4.43,2.93,7.07,2.93c2.63,0,5.21-1.07,7.07-2.93c1.86-1.86,2.93-4.44,2.93-7.07
			S179.6,31.79,177.74,29.93z"/>
	</g>
</g>
<g>
	<g>
		<path fill="white" d="M502,27H213.333c-5.523,0-10,4.477-10,10s4.477,10,10,10H492v81.851L309.594,311.255c-3.905,3.905-3.905,10.237,0,14.143
			c1.953,1.952,4.512,2.929,7.071,2.929s5.119-0.977,7.071-2.929L492,157.135V371H20V47h107c5.523,0,10-4.477,10-10s-4.477-10-10-10
			H10C4.477,27,0,31.477,0,37v344c0,5.523,4.477,10,10,10h172v34h-58c-5.523,0-10,4.477-10,10v30H57.154c-5.523,0-10,4.477-10,10
			s4.477,10,10,10h361.889c5.523,0,10-4.477,10-10s-4.477-10-10-10H398v-30c0-5.523-4.477-10-10-10h-58v-34h172
			c5.523,0,10-4.477,10-10V37C512,31.477,507.523,27,502,27z M202,391h108v34H202V391z M378,445v20H134v-20h58h128H378z"/>
	</g>
</g>
<g>
	<g>
		<path fill="white" d="M177.359,114.92c-3.905-3.906-10.236-3.904-14.143,0L74.71,203.426c-3.905,3.905-3.905,10.237,0,14.143
			c1.953,1.953,4.512,2.929,7.071,2.929s5.119-0.977,7.071-2.929l88.507-88.506C181.264,125.157,181.265,118.825,177.359,114.92z"/>
	</g>
</g>
<g>
	<g>
		<path fill="white" d="M60.61,231.67c-1.86-1.86-4.44-2.93-7.07-2.93s-5.21,1.07-7.07,2.93c-1.86,1.86-2.93,4.43-2.93,7.07
			c0,2.63,1.07,5.21,2.93,7.07c1.86,1.86,4.44,2.93,7.07,2.93s5.21-1.07,7.07-2.93c1.86-1.86,2.93-4.44,2.93-7.07
			S62.47,233.53,60.61,231.67z"/>
	</g>
</g>
<g>
	<g>
		<path fill="white" d="M461.92,467.93c-1.86-1.86-4.44-2.93-7.07-2.93c-2.64,0-5.21,1.07-7.07,2.93c-1.87,1.86-2.93,4.44-2.93,7.07
			s1.06,5.21,2.93,7.07c1.85,1.86,4.43,2.93,7.07,2.93c2.63,0,5.21-1.07,7.07-2.93c1.86-1.86,2.93-4.44,2.93-7.07
			S463.78,469.79,461.92,467.93z"/>
	</g>
</g>
<g>
	<g>
		<path fill="white" d="M235.704,161.994h-56c-5.523,0-10,4.477-10,10c0,5.523,4.477,10,10,10h18V256c0,5.523,4.477,10,10,10
			c5.523,0,10-4.477,10-10v-74.006h18c5.523,0,10-4.477,10-10C245.704,166.471,241.227,161.994,235.704,161.994z"/>
	</g>
</g>
<g>
	<g>
		<path fill="white" d="M335.458,162.507c-5.239-1.745-10.903,1.084-12.649,6.325l-18.513,55.543l-18.513-55.543
			c-1.746-5.239-7.411-8.07-12.649-6.325c-5.239,1.746-8.071,7.409-6.325,12.649l28,84.006c1.361,4.084,5.183,6.838,9.487,6.838
			c4.304,0,8.126-2.754,9.487-6.838l28-84.006C343.53,169.916,340.698,164.253,335.458,162.507z"/>
	</g>
</g>
<g>
</g>
<g>
</g>
<g>
</g>
<g>
</g>
<g>
</g>
<g>
</g>
<g>
</g>
<g>
</g>
<g>
</g>
<g>
</g>
<g>
</g>
<g>
</g>
<g>
</g>
<g>
</g>
<g>
</g>
</svg>
