<?xml version="1.0" encoding="utf-8"?>
<!-- Generator: Adobe Illustrator 22.0.0, SVG Export Plug-In . SVG Version: 6.00 Build 0)  -->
<svg version="1.1" id="圖層_1" xmlns="http://www.w3.org/2000/svg" xmlns:xlink="http://www.w3.org/1999/xlink" x="0px" y="0px"
	 viewBox="0 0 74 24" style="enable-background:new 0 0 74 24;" xml:space="preserve">
<style type="text/css">
	.st0{fill:#948F8F;}
</style>
<path class="st0" d="M9.2,8.2v2.5h5.9c-0.2,1.4-0.6,2.4-1.3,3.1c-0.9,0.9-2.2,1.8-4.5,1.8c-3.6,0-6.4-2.9-6.4-6.5s2.8-6.5,6.4-6.5
	c1.9,0,3.4,0.8,4.4,1.8l1.7-1.7C13.9,1.1,12,0,9.2,0c-5,0-9.1,4-9.1,9s4.2,9,9.1,9c2.7,0,4.7-0.9,6.3-2.5c1.6-1.6,2.1-3.9,2.1-5.8
	c0-0.6,0-1.1-0.1-1.5H9.2z M25,6.2c-3.2,0-5.8,2.4-5.8,5.8c0,3.3,2.6,5.8,5.8,5.8s5.8-2.5,5.8-5.8C30.8,8.6,28.2,6.2,25,6.2z
	 M25,15.5c-1.8,0-3.3-1.4-3.3-3.5c0-2.1,1.5-3.5,3.3-3.5s3.3,1.4,3.3,3.5C28.3,14.1,26.8,15.5,25,15.5z M53.6,7.5L53.6,7.5
	c-0.7-0.7-1.8-1.3-3.2-1.3C47.5,6.2,45,8.7,45,12c0,3.3,2.5,5.8,5.4,5.8c1.4,0,2.5-0.6,3.1-1.3h0.1v0.8c0,2.2-1.2,3.4-3.1,3.4
	c-1.6,0-2.5-1.1-2.9-2.1l-2.2,0.9c0.6,1.5,2.3,3.4,5.2,3.4c3,0,5.5-1.8,5.5-6.1V6.5h-2.4V7.5z M50.7,15.5c-1.8,0-3.1-1.5-3.1-3.5
	c0-2.1,1.3-3.5,3.1-3.5c1.7,0,3.1,1.5,3.1,3.5C53.8,14.1,52.4,15.5,50.7,15.5z M38,6.2c-3.2,0-5.8,2.4-5.8,5.8
	c0,3.3,2.6,5.8,5.8,5.8s5.8-2.5,5.8-5.8C43.8,8.6,41.2,6.2,38,6.2z M38,15.5c-1.8,0-3.3-1.4-3.3-3.5c0-2.1,1.5-3.5,3.3-3.5
	s3.3,1.4,3.3,3.5C41.3,14.1,39.8,15.5,38,15.5z M58,0.2h2.5v17.6H58V0.2z M68.3,15.5c-1.3,0-2.2-0.6-2.8-1.8l7.8-3.2l-0.3-0.7
	c-0.5-1.3-2-3.7-5-3.7c-3,0-5.5,2.3-5.5,5.8c0,3.3,2.5,5.8,5.8,5.8c2.7,0,4.2-1.6,4.8-2.6l-2-1.3C70.5,14.9,69.6,15.5,68.3,15.5
	L68.3,15.5z M68.1,8.4c1,0,1.9,0.5,2.2,1.3L65,11.8C65,9.4,66.8,8.4,68.1,8.4z"/>
</svg>
